<svg width="44" height="44" viewBox="0 0 44 44" fill="none" xmlns="http://www.w3.org/2000/svg">
<g id="&#240;&#159;&#166;&#134; icon &#34;menu book&#34;">
<path id="Vector" d="M36 10.7059C34.335 10.2118 32.505 10 30.75 10C27.825 10 24.675 10.5647 22.5 12.1176C20.325 10.5647 17.175 10 14.25 10C11.325 10 8.175 10.5647 6 12.1176V32.8C6 33.1529 6.375 33.5059 6.75 33.5059C6.9 33.5059 6.975 33.4353 7.125 33.4353C9.15 32.5176 12.075 31.8824 14.25 31.8824C17.175 31.8824 20.325 32.4471 22.5 34C24.525 32.8 28.2 31.8824 30.75 31.8824C33.225 31.8824 35.775 32.3059 37.875 33.3647C38.025 33.4353 38.1 33.4353 38.25 33.4353C38.625 33.4353 39 33.0824 39 32.7294V12.1176C38.1 11.4824 37.125 11.0588 36 10.7059ZM9 29.7647V13.5294C10.65 13.0353 12.45 12.8235 14.25 12.8235C16.26 12.8235 18.945 13.4024 21 14.2212V30.4565C18.945 29.6376 16.26 29.0588 14.25 29.0588C12.45 29.0588 10.65 29.2706 9 29.7647ZM36 29.7647C34.35 29.2706 32.55 29.0588 30.75 29.0588C28.74 29.0588 26.055 29.6376 24 30.4565V14.2212C26.055 13.3882 28.74 12.8235 30.75 12.8235C32.55 12.8235 34.35 13.0353 36 13.5294V29.7647Z" fill="#F2F5F7"/>
<path id="Vector_2" opacity="0.3" d="M21 14.3475C18.945 13.558 16.26 13 14.25 13C12.45 13 10.65 13.2042 9 13.6805V29.3331C10.65 28.8567 12.45 28.6525 14.25 28.6525C16.26 28.6525 18.945 29.2106 21 30V14.3475Z" fill="#F2F5F7"/>
<path id="Vector_3" d="M30.25 18.4706C31.57 18.4706 32.845 18.5588 34 18.7255V17.2353C32.815 17.0882 31.54 17 30.25 17C28.33 17 26.56 17.1569 25 17.4608V19C26.485 18.6569 28.27 18.4706 30.25 18.4706Z" fill="#F2F5F7"/>
<path id="Vector_4" d="M30.25 22.2059C31.57 22.2059 32.845 22.3382 34 22.5882V20.3529C32.815 20.1324 31.54 20 30.25 20C28.33 20 26.56 20.2353 25 20.6912V23C26.485 22.5 28.27 22.2059 30.25 22.2059Z" fill="#F2F5F7"/>
<path id="Vector_5" d="M30.25 26.2059C31.57 26.2059 32.845 26.3382 34 26.5882V24.3529C32.815 24.1324 31.54 24 30.25 24C28.33 24 26.56 24.2353 25 24.6912V27C26.485 26.4853 28.27 26.2059 30.25 26.2059Z" fill="#F2F5F7"/>
</g>
</svg>
