<svg width="30" height="30" viewBox="0 0 30 30" fill="none" xmlns="http://www.w3.org/2000/svg">
<g id="crown-svgrepo-com 1">
<path id="Vector" d="M11.4444 5.76471L12.3333 10H17.6667L18.5556 5.76471M11.4444 5.76471L12.2072 6.24929C12.7032 6.56436 12.9512 6.72192 13.2011 6.74638C13.4201 6.7678 13.6413 6.72375 13.8217 6.62285C14.0276 6.50768 14.1527 6.27587 14.4029 5.81227L15 4.70588M11.4444 5.76471C11.6899 5.76471 11.8889 5.60669 11.8889 5.41176C11.8889 5.21684 11.6899 5.05882 11.4444 5.05882C11.199 5.05882 11 5.21684 11 5.41176C11 5.60669 11.199 5.76471 11.4444 5.76471ZM18.5556 5.76471L17.7928 6.24929C17.2968 6.56436 17.0488 6.72192 16.7988 6.74638C16.5799 6.7678 16.3587 6.72375 16.1783 6.62285C15.9724 6.50768 15.8473 6.27587 15.5971 5.81227L15 4.70588M18.5556 5.76471C18.801 5.76471 19 5.60669 19 5.41176C19 5.21684 18.801 5.05882 18.5556 5.05882C18.3101 5.05882 18.1111 5.21684 18.1111 5.41176C18.1111 5.60669 18.3101 5.76471 18.5556 5.76471ZM15 4.70588C15.2455 4.70588 15.4444 4.54786 15.4444 4.35294C15.4444 4.15802 15.2455 4 15 4C14.7545 4 14.5556 4.15802 14.5556 4.35294C14.5556 4.54786 14.7545 4.70588 15 4.70588ZM15 4.35294H15.0044M18.5556 5.41176H18.56M11.4444 5.41176H11.4489" stroke="#F2F5F7" stroke-linecap="round" stroke-linejoin="round"/>
<path id="Vector_2" d="M15 11.875C16.375 11.875 17.5 12.7188 17.5 13.75C17.5 14.7812 16.375 15.625 15 15.625C13.625 15.625 12.5 14.7812 12.5 13.75C12.5 12.7188 13.625 11.875 15 11.875ZM15 21.25C18.375 21.25 22.25 22.4594 22.5 23.125H7.5C7.7875 22.45 11.6375 21.25 15 21.25ZM15 10C12.2375 10 10 11.6781 10 13.75C10 15.8219 12.2375 17.5 15 17.5C17.7625 17.5 20 15.8219 20 13.75C20 11.6781 17.7625 10 15 10ZM15 19.375C11.6625 19.375 5 20.6312 5 23.125V25H25V23.125C25 20.6312 18.3375 19.375 15 19.375Z" fill="#F2F5F7"/>
</g>
</svg>
