<svg width="44" height="44" viewBox="0 0 44 44" fill="none" xmlns="http://www.w3.org/2000/svg">
<g id="&#240;&#159;&#166;&#134; icon &#34;build&#34;">
<path id="Vector" d="M36.5893 31.5381L24.1575 19.1474C25.4308 15.9542 24.7736 12.1878 22.186 9.59505C19.037 6.45643 14.1355 6.16986 10.6442 8.70805L15.9017 13.9618L13.9575 15.8859L8.7137 10.6595C6.16712 14.1256 6.45463 19.0246 9.60364 22.1495C12.1502 24.6877 15.8606 25.3564 19.037 24.1692L31.5098 36.6008C32.0437 37.1331 32.9063 37.1331 33.4403 36.6008L36.5893 33.4622C37.1369 32.9437 37.1369 32.084 36.5893 31.5381ZM32.4819 33.7215L19.5299 20.8122C18.6947 21.4263 17.7637 21.7947 16.7916 21.9312C14.9296 22.2041 12.9717 21.6446 11.5478 20.2254C10.2471 18.9427 9.64471 17.2233 9.74055 15.5311L13.9712 19.7478L19.7763 13.9618L15.5457 9.74516C17.2434 9.64964 18.9548 10.2501 20.2555 11.5328C21.7342 13.0066 22.2955 15.0399 21.9532 16.9367C21.7889 17.9056 21.3782 18.8062 20.7484 19.6114L33.6867 32.507L32.4819 33.7215Z" fill="#F2F5F7"/>
</g>
</svg>
