<svg width="24" height="24" viewBox="0 0 24 24" fill="none" xmlns="http://www.w3.org/2000/svg">
<g id="pen-svgrepo-com 1" clip-path="url(#clip0_434_210)">
<path id="Vector" d="M16.4825 7.14008C16.3935 7.18928 16.3178 7.25934 16.2618 7.34426L11.4817 14.3904L8.12366 11.2744C8.06372 11.217 7.99299 11.172 7.91556 11.1421C7.83767 11.112 7.75457 11.0977 7.6711 11.1001C7.58763 11.1025 7.50548 11.1215 7.42944 11.156C7.3534 11.1905 7.285 11.2398 7.22824 11.3011C7.17148 11.3623 7.1275 11.4343 7.09886 11.5127C7.07023 11.5911 7.05752 11.6745 7.06147 11.7579C7.06542 11.8413 7.08596 11.9231 7.12189 11.9985C7.15759 12.0734 7.20778 12.1405 7.26955 12.1959L11.571 16.1873L11.6991 16.3061L11.7972 16.1616L17.3017 8.04959C17.3019 8.04929 17.3021 8.04899 17.3023 8.0487C17.3683 7.95384 17.4068 7.84262 17.4136 7.72727C17.4205 7.61156 17.3952 7.49621 17.3406 7.39397C17.286 7.29173 17.2042 7.20659 17.1042 7.14797C17.0042 7.08935 16.8899 7.05953 16.774 7.06182C16.672 7.06383 16.5719 7.09069 16.4825 7.14008ZM12 0.85C5.8478 0.85 0.85 5.8478 0.85 12C0.85 18.1522 5.8478 23.15 12 23.15C18.1522 23.15 23.15 18.1522 23.15 12C23.15 5.8478 18.1522 0.85 12 0.85ZM12 2.10652C17.4695 2.10652 21.8935 6.53046 21.8935 12C21.8935 17.4695 17.4695 21.8935 12 21.8935C6.53046 21.8935 2.10652 17.4695 2.10652 12C2.10652 6.53046 6.53046 2.10652 12 2.10652Z" fill="white" stroke="#F2F5F7" stroke-width="0.3"/>
</g>
<defs>
<clipPath id="clip0_434_210">
<rect width="24" height="24" fill="white"/>
</clipPath>
</defs>
</svg>
