<svg width="121" height="50" viewBox="0 0 121 50" fill="none" xmlns="http://www.w3.org/2000/svg">
<rect width="121" height="50" rx="20" fill="#F91155"/>
<path d="M67.4167 28.6667H65.9684L65.4551 28.1717C67.6551 25.605 68.7917 22.1034 68.1684 18.3817C67.3067 13.285 63.0534 9.21502 57.92 8.59168C50.165 7.63835 43.6384 14.165 44.5917 21.92C45.215 27.0534 49.285 31.3067 54.3817 32.1684C58.1034 32.7917 61.605 31.655 64.1717 29.455L64.6667 29.9684V31.4167L72.4584 39.2084C73.2101 39.96 74.4384 39.96 75.1901 39.2084C75.9417 38.4567 75.9417 37.2284 75.1901 36.4767L67.4167 28.6667ZM56.4167 28.6667C51.8517 28.6667 48.1667 24.9817 48.1667 20.4167C48.1667 15.8517 51.8517 12.1667 56.4167 12.1667C60.9817 12.1667 64.6667 15.8517 64.6667 20.4167C64.6667 24.9817 60.9817 28.6667 56.4167 28.6667Z" fill="#F2F5F7"/>
</svg>
